<svg width="200" height="200" viewBox="0 0 200 200" xmlns="http://www.w3.org/2000/svg">
  <defs>
    <radialGradient id="bodyGradient" cx="50%" cy="30%" r="70%">
      <stop offset="0%" style="stop-color:#4a90e2;stop-opacity:1" />
      <stop offset="50%" style="stop-color:#2c5aa0;stop-opacity:1" />
      <stop offset="100%" style="stop-color:#1a365d;stop-opacity:1" />
    </radialGradient>
    <radialGradient id="mouthGradient" cx="50%" cy="50%" r="60%">
      <stop offset="0%" style="stop-color:#f7fafc;stop-opacity:1" />
      <stop offset="100%" style="stop-color:#e2e8f0;stop-opacity:1" />
    </radialGradient>
    <linearGradient id="spotGradient" x1="0%" y1="0%" x2="100%" y2="100%">
      <stop offset="0%" style="stop-color:#ffffff;stop-opacity:0.8" />
      <stop offset="100%" style="stop-color:#e2e8f0;stop-opacity:0.6" />
    </linearGradient>
  </defs>
  
  <!-- Background circle -->
  <circle cx="100" cy="100" r="95" fill="url(#bodyGradient)" stroke="#00d4ff" stroke-width="3"/>
  
  <!-- Whale shark body -->
  <ellipse cx="100" cy="100" rx="80" ry="60" fill="url(#bodyGradient)"/>
  
  <!-- Mouth opening -->
  <ellipse cx="100" cy="100" rx="60" ry="45" fill="url(#mouthGradient)"/>
  
  <!-- Inner mouth detail -->
  <ellipse cx="100" cy="100" rx="45" ry="30" fill="#f1f5f9"/>
  
  <!-- Spots pattern -->
  <ellipse cx="70" cy="70" rx="8" ry="12" fill="url(#spotGradient)" opacity="0.8"/>
  <ellipse cx="120" cy="80" rx="6" ry="10" fill="url(#spotGradient)" opacity="0.8"/>
  <ellipse cx="85" cy="90" rx="7" ry="9" fill="url(#spotGradient)" opacity="0.8"/>
  <ellipse cx="110" cy="110" rx="5" ry="8" fill="url(#spotGradient)" opacity="0.8"/>
  <ellipse cx="75" cy="120" rx="6" ry="7" fill="url(#spotGradient)" opacity="0.8"/>
  <ellipse cx="125" cy="120" rx="8" ry="6" fill="url(#spotGradient)" opacity="0.8"/>
  
  <!-- Eyes -->
  <circle cx="85" cy="85" r="3" fill="#000000"/>
  <circle cx="115" cy="85" r="3" fill="#000000"/>
  <circle cx="87" cy="83" r="1" fill="#ffffff"/>
  <circle cx="117" cy="83" r="1" fill="#ffffff"/>
  
  <!-- Nostrils -->
  <ellipse cx="90" cy="75" rx="2" ry="1" fill="#000000"/>
  <ellipse cx="110" cy="75" rx="2" ry="1" fill="#000000"/>
  
  <!-- Pectoral fins -->
  <ellipse cx="50" cy="120" rx="15" ry="25" fill="url(#bodyGradient)" transform="rotate(-30 50 120)"/>
  <ellipse cx="150" cy="120" rx="15" ry="25" fill="url(#bodyGradient)" transform="rotate(30 150 120)"/>
  
  <!-- Tail fin -->
  <ellipse cx="30" cy="100" rx="20" ry="35" fill="url(#bodyGradient)" transform="rotate(-45 30 100)"/>
  
  <!-- Mouth teeth/gills detail -->
  <ellipse cx="100" cy="100" rx="35" ry="20" fill="none" stroke="#cbd5e0" stroke-width="1" opacity="0.5"/>
  
  <!-- Highlight on body -->
  <ellipse cx="90" cy="80" rx="20" ry="15" fill="#ffffff" opacity="0.2"/>
</svg>
